<svg xmlns="http://www.w3.org/2000/svg" width="256" height="256" viewBox="0 0 100 100"><rect width="100" height="100" rx="50" fill="#fcd34d"></rect><path fill="#fff" d="M72.38 48.68L72.38 50.47Q72.38 57.96 69.60 63.73Q66.82 69.49 61.71 72.61Q56.59 75.72 50.05 75.72L50.05 75.72Q44.36 75.72 39.79 73.43L39.79 73.43L36.94 78.35L29.66 78.35L34.62 69.74Q27.62 62.74 27.62 50.19L27.62 50.19L27.62 48.40Q27.62 40.84 30.38 35.11Q33.14 29.38 38.26 26.25Q43.37 23.12 49.98 23.12L49.98 23.12Q55.50 23.12 60.07 25.37L60.07 25.37L62.22 21.65L69.53 21.65L65.28 29.06Q72.38 36.10 72.38 48.68L72.38 48.68ZM59.83 50.69L59.83 48.33Q59.83 43.65 58.81 40.28L58.81 40.28L44.88 64.50Q46.99 66.08 50.05 66.08L50.05 66.08Q54.76 66.08 57.28 62.11Q59.79 58.14 59.83 50.69L59.83 50.69ZM40.14 48.12L40.14 50.47Q40.14 55.15 41.09 58.46L41.09 58.46L54.94 34.30Q52.83 32.79 49.98 32.79L49.98 32.79Q45.10 32.79 42.63 36.69Q40.17 40.60 40.14 48.12L40.14 48.12Z"></path></svg>